<svg width="29" height="28" viewBox="0 0 29 28" fill="none" xmlns="http://www.w3.org/2000/svg">
<rect x="0.5" width="28" height="28" rx="14" fill="#708FA0"/>
<path d="M14.6921 9.08512L14.5057 9.29075L14.3193 9.08453C13.6756 8.38522 12.8084 7.99545 11.9062 8.00004C11.0041 8.00463 10.1402 8.40319 9.50227 9.10903C8.86438 9.81486 8.50418 10.7709 8.50004 11.7691C8.49589 12.7672 8.84813 13.7269 9.48014 14.4392L9.6665 14.6454L14.5057 20L19.3449 14.6454L19.5313 14.4392C20.1582 13.7258 20.5062 12.7679 20.4999 11.7728C20.4936 10.7777 20.1335 9.8254 19.4976 9.12179C18.8616 8.41817 18.0009 8.01986 17.1016 8.013C16.2023 8.00613 15.3367 8.39128 14.6921 9.08512Z" fill="white"/>
</svg>
