<svg id="Layer_1" data-name="Layer 1" xmlns="http://www.w3.org/2000/svg" xmlns:xlink="http://www.w3.org/1999/xlink" viewBox="0 0 89.03 170.17"><defs><style>.cls-1{fill:url(#linear-gradient);}.cls-2{fill:url(#linear-gradient-2);}.cls-3{fill:url(#_9);}.cls-4{fill:#4d5051;}.cls-5{fill:url(#linear-gradient-3);}.cls-6{fill:url(#linear-gradient-4);}.cls-7{fill:url(#linear-gradient-5);}.cls-8{fill:url(#linear-gradient-6);}.cls-9{fill:url(#linear-gradient-7);}.cls-10{fill:url(#linear-gradient-8);}.cls-11{fill:url(#linear-gradient-9);}.cls-12{fill:url(#linear-gradient-10);}</style><linearGradient id="linear-gradient" x1="20.37" y1="77.55" x2="61.08" y2="44.95" gradientUnits="userSpaceOnUse"><stop offset="0" stop-color="#b2b2b2"/><stop offset="0.52" stop-color="#dedede"/><stop offset="0.63" stop-color="#d7d7d7"/><stop offset="0.78" stop-color="#c5c5c5"/><stop offset="0.95" stop-color="#a6a6a6"/><stop offset="1" stop-color="#9d9d9d"/></linearGradient><linearGradient id="linear-gradient-2" x1="12.67" y1="83.06" x2="56.36" y2="40.01" gradientUnits="userSpaceOnUse"><stop offset="0.52" stop-color="#dedede"/><stop offset="0.63" stop-color="#d7d7d7"/><stop offset="0.78" stop-color="#c5c5c5"/><stop offset="0.95" stop-color="#a6a6a6"/><stop offset="1" stop-color="#9d9d9d"/></linearGradient><linearGradient id="_9" x1="56.03" y1="77.96" x2="65.26" y2="77.96" gradientUnits="userSpaceOnUse"><stop offset="0" stop-color="#c6c6c6"/><stop offset="0.03" stop-color="#bcbdbd"/><stop offset="0.14" stop-color="#a0a0a0"/><stop offset="0.24" stop-color="#8e8f8f"/><stop offset="0.31" stop-color="#888989"/><stop offset="0.4" stop-color="#969797"/><stop offset="0.57" stop-color="#bbb"/><stop offset="0.71" stop-color="#dedede"/><stop offset="0.78" stop-color="#d7d7d7"/><stop offset="0.87" stop-color="#c5c5c5"/><stop offset="0.97" stop-color="#a6a6a6"/><stop offset="1" stop-color="#9d9d9d"/></linearGradient><linearGradient id="linear-gradient-3" x1="9.26" y1="2137.1" x2="56.92" y2="2137.1" gradientTransform="translate(88.32 2252.36) rotate(180)" gradientUnits="userSpaceOnUse"><stop offset="0.04" stop-color="#dedede"/><stop offset="0.26" stop-color="#d9d9d9"/><stop offset="0.52" stop-color="#cacaca"/><stop offset="0.81" stop-color="#b1b1b1"/><stop offset="1" stop-color="#9d9d9d"/></linearGradient><linearGradient id="linear-gradient-4" x1="13.08" y1="2119.61" x2="49.42" y2="2119.61" gradientTransform="translate(88.32 2252.36) rotate(180)" gradientUnits="userSpaceOnUse"><stop offset="0" stop-color="#9d9d9d"/><stop offset="0.52" stop-color="#dedede"/><stop offset="0.63" stop-color="#d7d7d7"/><stop offset="0.78" stop-color="#c5c5c5"/><stop offset="0.95" stop-color="#a6a6a6"/><stop offset="1" stop-color="#9d9d9d"/></linearGradient><linearGradient id="linear-gradient-5" x1="-0.55" y1="2126.27" x2="50.97" y2="2126.27" xlink:href="#linear-gradient-4"/><linearGradient id="linear-gradient-6" x1="63.24" y1="95.16" x2="37.23" y2="121.17" gradientTransform="matrix(1, 0, 0, 1, 0, 0)" xlink:href="#linear-gradient-3"/><linearGradient id="linear-gradient-7" x1="63.03" y1="2160.37" x2="72.46" y2="2160.37" gradientTransform="translate(88.32 2252.36) rotate(180)" gradientUnits="userSpaceOnUse"><stop offset="0" stop-color="#7d94a0"/><stop offset="1" stop-color="#9aadb8"/></linearGradient><linearGradient id="linear-gradient-8" x1="63.5" y1="2129.49" x2="63.51" y2="2129.49" xlink:href="#linear-gradient-4"/><linearGradient id="linear-gradient-9" x1="59.29" y1="2121.81" x2="59.29" y2="2121.81" xlink:href="#linear-gradient-4"/><linearGradient id="linear-gradient-10" x1="60.25" y1="2123.56" x2="60.26" y2="2123.56" xlink:href="#linear-gradient-4"/></defs><path class="cls-1" d="M68.25,71.82l-.88-1.62-1.85-3.32-1.21-2.24-.19-.31L63.4,63,61,58.66l-.65-1.2-.75-1.37-.16-.26-3-5.41-.07-.16-.92-1.61-.43-.8-2.64-4.76-.49-.89-.39-.75-1-1.82-2-3.72-.89-1.64L47.4,34,46,31.39l-1.48-2.66-.91-1.64-.72-1.35L41.5,23.28,36.88,26l.61,1.08,2.37,4.3.67,1.27.73,1.3.18.33,2.94,5.34.13.2.89,1.65.42.72L48.47,47l.46.84.42.8,1,1.77,2.07,3.77v0l.91,1.61.13.26,1.41,2.57,1.51,2.73L57.28,63l.7,1.3,1.43,2.55.94,1.69.88,1.63,1.3,2.35h6.14ZM80.13,79l-.91-1.63L78,75.12l-1.44-2.57-.38-.73-.91-1.62-1.82-3.32-1.25-2.24L72,64.33,71.32,63l-2.39-4.34-.68-1.2-.75-1.37-.16-.26-3-5.41-.07-.16-.91-1.61-.45-.8-2.6-4.76-.5-.89-.41-.75-1-1.82-2-3.72-.92-1.64L55.3,34l-1.4-2.57-1.49-2.66-.91-1.64-.72-1.35-1.43-2.58-1.77-3.24v0L46.23,17.5l-1.4-2.58-.32-.57-.91-1.64L41.7,9.28l-1.14-2.1-1.17,2.1-1.9,3.43v0l1.19,2.18,1.44,2.58.41.78.91,1.64,1.79,3.24,1.28,2.29.16.29.73,1.35,2.36,4.3.71,1.27.72,1.3.16.33,3,5.34.09.2.91,1.65.4.72L56.37,47l.47.84.44.8,1,1.77,2.08,3.8.88,1.61v0l.16.24,1.4,2.57,1.52,2.73L65.19,63l.73,1.3,1.4,2.55.93,1.69.91,1.63,1.28,2.35,1.43,2.57H63.94l.37.65.88,1.62,1.87,3.4h14Zm7-1.63-1.25-2.27-1.43-2.57-.39-.7-.91-1.65-1.82-3.32-1.23-2.24L80,64.33,79.22,63l-2.38-4.37-.65-1.2-.79-1.37-.12-.24v0l-3-5.41-.08-.13v0l-.89-1.61-.44-.8-2.63-4.74-.49-.91-.42-.72v0l-.59-1.07-.42-.75-2-3.72h0l-.88-1.62v0L63.21,34,61.8,31.39l-1.45-2.66-.91-1.64-.75-1.35-1.41-2.58h0l-.88-1.61-.91-1.63-1.3-2.42h0l-1.41-2.58-.32-.54-.91-1.64v0L49.6,9.28l-1.13-2.1L48.2,6.7l-.64-1.16L45.08,1l-.57-1-.59,1L41.44,5.54,42.1,6.7l1.4,2.58,1,1.82.89,1.61,1.22,2.21,1.43,2.58.42.78.91,1.64,1.79,3.24,1.24,2.29.16.29.75,1.35,2.37,4.3.68,1.27L57.1,34l.18.31,2.94,5.36.13.2.88,1.65.42.72L64.31,47l.46.84.42.8,1,1.77,2.07,3.77v0l.91,1.61.13.26,1.41,2.57,1.51,2.73L73.12,63l.7,1.3,1.43,2.55.94,1.69.88,1.63,1.3,2.35,1.41,2.57.35.65L81,77.39l1.87,3.4H89Z"/><path class="cls-2" d="M33.59,80.78H0l1.86-3.39,1.26-2.27L3.18,75l1.34-2.46.39-.73.91-1.62,1.61-3,.21-.37,1.19-2.14,3.05,5.54-1.22,2.27L9.28,75.11H24.36L23,72.55,21.66,70.2h0l-.9-1.62-.93-1.67-1.41-2.58L17.7,63l-.91-1.63h0L15.3,58.66l-1.42-2.57-.14-.26h0l3-5.39h.16l3,5.4h0l.14.25.77,1.37.65,1.2L23.81,63l.72,1.3.18.33h0L26,66.9l1.82,3.3.9,1.64.4.71,1.41,2.57,1.25,2.27.9,1.63Zm-1-48.12.73,1.3.15.31,3,5.36.1.2.91,1.64.39.73,3.56,6.45.06.1.93,1.67,2.08,3.79.89,1.62v0l.15.24L47,58.66l1.5,2.73L49.35,63l.73,1.3,1.43,2.55.91,1.69.91,1.64,1.3,2.34.6,1.09h6.11l-.6-1.09-.39-.71-.91-1.63-1.82-3.33-1.25-2.24-.18-.31L55.49,63l-2.42-4.34-.65-1.2-.76-1.37-.15-.26-3-5.41-.08-.13-.88-1.64-.44-.81-2.58-4.63-2-3.58-2-3.72-.91-1.64L39.49,34l-1.43-2.58-1.48-2.65-.88-1.64-.76-1.35-1.43-2.57-.88-1.64-.89,1.64-1.43,2.57,0,.1-.7,1.25,2.37,4.29ZM46.31,75.12,44.9,72.55l-.39-.71-.91-1.63-1.82-3.33-1.25-2.24-.15-.31L39.65,63l-2.39-4.37-.68-1.2-.75-1.37-.13-.26-3-5.41-.08-.13-.89-1.64-.44-.81-2.62-4.76-.5-.88-.41-.73.91-1.64.88,1.64.42.73L32.63,47l.47.83.44.81,1,1.77,2.08,3.77v0l.91,1.62.13.26,1.43,2.57,1.48,2.71v0L41.44,63l.73,1.3,1.41,2.55.93,1.69.91-1.69,1.43-2.55.7-1.3-2.39-4.37-.65-1.2-.78-1.37-.13-.24-3-5.43-.08-.13-.88-1.64-.44-.81-2.63-4.73-.49-.91-.39-.73-1-1.84-2-3.72-.89-1.61L31.56,34l-1.43-2.58-1.45-2.65-1.49,2.65L25.79,34l-.18.31v0l-.89,1.61h0l-2,3.72-.42.75-.6,1.07v0l.42.73L24.72,47l.47.83.42.81,1,1.77,2.08,3.77.88,1.64.16.26,1.4,2.57,1.51,2.73L33.54,63l.7,1.3,1.43,2.55.91,1.69.91,1.64,1.3,2.34,1.41,2.57H38.4L37,72.55l-.39-.71-.88-1.63-1.85-3.33-1.22-2.21-.18-.34L31.72,63v0l-2.39-4.34-.65-1.2-.78-1.37-.13-.24-3-5.43-.08-.13-.89-1.64-.44-.81-2.63-4.73-2.62,4.73-.42.81,1,1.77,2.08,3.79.91,1.62.13.26,1.43,2.57,1.51,2.73L25.61,63l.73,1.33,1.4,2.55.94,1.69.88,1.64,1.3,2.34,1.43,2.57.34.63.91,1.63,1.87,3.41H57.46l-3.12-5.67Z"/><polygon class="cls-3" points="65.26 80.79 59.15 80.79 56.76 76.45 56.03 75.12 62.14 75.12 62.87 76.45 63.78 78.09 64.22 78.92 65.26 80.79"/><polygon class="cls-3" points="65.26 80.79 59.15 80.79 56.76 76.45 56.03 75.12 62.14 75.12 62.87 76.45 63.78 78.09 64.22 78.92 65.26 80.79"/><polygon class="cls-4" points="65.26 80.79 59.15 80.79 56.76 76.45 56.03 75.12 62.14 75.12 62.87 76.45 63.78 78.09 64.22 78.92 65.26 80.79"/><path class="cls-4" d="M35.77,19.28a.31.31,0,0,0-.12.49l1.48,2.54,2.81-1.72L41,22.3l-4.6,2.82-2.54-4.25a2.25,2.25,0,0,1-.26-1.79,2.41,2.41,0,0,1,1.13-1.51L37.22,16l1.05,1.71Z"/><path class="cls-5" d="M32.56,90.84l.9,1.65,1.28,2.33h8l.81,1.48h0v0l.94,1.71.62,1.13.35.64L46.68,102l.81,1.48,1,1.86.79,1.45,1.3,2.36.49.89.32.59,1,1.9.19.35.59,1.06,1.3,2.36.81,1.48,1,1.89.87,1.58h0l1.2,2.19.15.27.67,1.2.89,1.63.24.43h0l.78,1.41-1,1.77,0-.07-.73-1.34-.83-1.5-1.28-2.34-.81-1.47-.23-.42-.87-1.59-2-3.66-.75-1.36-.06-.12-.32-.59-.78-1.42-.39-.71-1.63-3-.81-1.48-.32-.58-.8-1.46-2-3.63-.4-.74-.4-.74-.22-.39-.22.39-.72,1.3-.1.18-2,3.63,1.12,2,.81,1.48.16.29.94,1.69.62,1.14.17.32,1.23,2.23.81,1.48,1.11,2,.78,1.4,1.23,2.24.63,1.14.18.33,1.11,2,.26.48.61,1.1,1.14,2.07.81,1.47,1.21,2.19.77,1.41,1.14,2.08.28.51.54,1,1,1.87.15.28,1.18-2.15.81-1.48,1-1.88h0l1-1.77,1.1-2,.71-1.28.1-.19,1.11-2-1.21-2.2-.8-1.46-.81-1.47-.31-.56-.78-1.41-2-3.7-.81-1.48-.31-.55-.11-.21-.75-1.37-.81-1.47-1.13-2.07-.82-1.48-.39-.72L55.49,107l-1.94-3.54L52.73,102l-.08-.14-.31-.57-.8-1.46L51.1,99l-1.49-2.7-.81-1.48h2l.3.54.51.94.93,1.7.11.2.69,1.25L54.73,102l.81,1.48,1,1.72.78,1.42L58.61,109l0,.09.81,1.48.7,1.27.25.45.87,1.58,1.3,2.37.81,1.48,1,1.88.77,1.41.92,1.67.39.71.81,1.47.36.65.65,1.19,1-1.84.8-1.47,1.21-2.2-1.91-3.47-.81-1.48-.4-.74-.55-1-.22-.41-1.34-2.43-.6-1.09-.82-1.48-.39-.73-.88-1.58-1.84-3.36L60.78,102l-.49-.89-.12-.23-.66-1.19L58.61,98l-.94-1.72-.82-1.48h1.82l.82,1.48.68,1.25.25.47.78,1.41L62.6,102l.82,1.48.93,1.7.88,1.59.9,1.64.4.74.82,1.48.34.61.69,1.26.77,1.4,1.31,2.4.81,1.48,1,1.81,1-1.81.38-.69.43-.79,1.12-2,.1-.18,1-1.76.92-1.68.81-1.48,1.29-2.36-1.82-3.31L76.66,102l-.49-.88-.77-1.4-.2-.36L73.65,96.5l-.11-.2-.81-1.48L72.25,94l-.87-1.58-1.77-3.23h-38Zm34.11,4,.82,1.48.2.38.66,1.2.88,1.59L70.6,102l.81,1.48,1,1.74.77,1.41.5.91.88,1.61H72.59l-.41-.75L71.41,107l-1.94-3.51L68.66,102l-.4-.74-.57-1-.31-.56-1.25-2.27-.59-1.08-.81-1.48Z"/><polygon class="cls-4" points="71.51 89.15 77.56 89.15 79.38 92.45 80.15 93.86 80.68 94.82 81.16 95.7 81.49 96.3 82.72 98.53 83.27 99.53 82.72 100.54 81.92 101.98 81.16 103.37 81.12 103.46 80.24 105.04 79.38 103.46 78.56 101.98 77.13 99.37 76.35 97.96 75.44 96.3 75.2 95.87 74.62 94.82 73.64 93.04 73.2 92.23 72.33 90.65 71.51 89.15"/><path class="cls-6" d="M19.8,96.3l.87,1.59.36.65.61,1.12.95,1.72.33.6.81,1.48.94,1.7h0l.91,1.65,1.27,2.31.81,1.48.89,1.61.06.11,1,1.81h0l.5.9.67,1.23.81,1.48,1,1.89,1,1.77h0l1.1,2,.81,1.47.54,1,.57,1.05h0l.81,1.46.18.33,1,1.86.8,1.47,1.14,2.06.78,1.43,1.2,2.19.82,1.48.19.35.94,1.7.62,1.14.24.44,1.12,2,.82,1.48,1.21,2.21.78,1.41L50.43,152l.67,1.21.15.27,1.2,2.19.2-.37,1-1.82.82-1.48L55.59,150l-2-3.61-.82-1.48-.15-.27-.19-.36-.78-1.41-.58-1.06-1.41-2.57-.82-1.48-.34-.62-.86-1.58-1.92-3.48-.61-1.12-.19-.35-.43-.78-.78-1.41-.16-.29-1.76-3.2L41,123.43l-.42-.77-.81-1.47-1.89-3.43-.27-.5-.54-1-.32-.59-.7-1.27-.28-.5L34,110.61l-.81-1.48-.39-.71h0l-1-1.81-1.65-3-.07-.12L29.22,102l-.49-.89-.18-.34-.73-1.32L26.1,96.3l-.54-1H19.25ZM29,130.54l0,0,.81,1.47.24.43,1.74,3.17.79,1.45.35.63.82,1.48,2,3.62.27.49.51.93.35.63.7,1.28.12.2,2,3.62.87,1.59.26.46.81,1.48L43.58,157l.17.3.77,1.41.26.48.36.65.45.82,2.07,3.77-1,1.91-.82,1.48-.66,1.2-.62,1.15-.94-1.71-.36-.64-.81-1.48-1-1.9L40.6,163l-1.31-2.37-.8-1.47-.87-1.59-.17-.31-.87-1.58-.52-.94-.69-1.26L34.56,152,33.43,150l-.78-1.42-1.2-2.19-.81-1.48-.53-1-.6-1.08-.8-1.46-.16-.29-1-1.86-.6-1.09-1-1.88L29,130.55"/><polygon class="cls-7" points="0.07 89.15 6.3 89.15 7.56 91.45 7.99 92.24 8.88 93.86 9.41 94.82 10.22 96.3 11.23 98.13 12.75 98.13 13.52 99.48 12.68 97.95 11.77 96.3 10.96 94.82 9.65 92.45 9.65 92.44 8.76 90.83 7.84 89.15 14.13 89.15 15.07 90.87 15.82 92.23 16.78 93.96 17.25 94.82 18.07 96.3 19.81 99.48 20.78 101.24 21.03 101.7 21.18 101.98 21.99 103.46 22.59 104.53 23.8 106.75 24.71 108.4 25.11 109.13 25.92 110.61 27.74 113.92 28.55 115.38 28.74 115.73 29.05 116.28 29.86 117.76 30.11 118.21 31.77 121.24 32.74 123.01 32.98 123.43 33.79 124.91 35.77 128.51 36.06 129.05 36.57 129.97 36.9 130.58 37.62 131.88 37.72 132.05 39.71 135.69 40.5 137.11 40.84 137.73 41.65 139.21 43.58 142.72 43.65 142.84 44.52 144.43 44.77 144.88 45.14 145.56 45.58 146.36 47.67 150.16 48.44 151.56 48.44 151.57 48.7 152.03 49.51 153.51 51.1 156.4 51.59 157.28 51.1 158.16 50.54 159.19 49.73 160.66 48.44 163.02 47.13 160.66 46.33 159.19 45.29 157.3 45.14 157.02 44.52 155.89 43.58 154.18 43.2 153.51 42.4 152.03 41.37 150.16 40.5 148.57 39.28 146.36 38.47 144.88 37.62 143.34 37.35 142.84 36.57 141.43 36.06 140.51 35.35 139.21 34.54 137.73 33.42 135.69 32.62 134.24 31.42 132.05 30.61 130.58 30.11 129.66 29.59 128.73 28.62 126.97 28.62 126.96 28.55 126.83 27.49 124.91 26.68 123.43 25.59 121.46 24.59 119.64 23.56 117.76 22.75 116.28 22.59 115.99 21.57 114.13 21.03 113.15 20.66 112.48 20.66 112.47 19.63 110.61 15.87 103.8 14.32 103.8 18.08 110.61 19.89 113.88 20.8 115.53 21.03 115.97 21.2 116.28 22.01 117.76 22.59 118.81 23.82 121.05 23.81 121.06 23.86 121.13 24.81 122.88 28.07 128.8 24.94 134.49 24.71 134.07 22.8 130.58 21.69 128.56 20.73 126.81 20.69 126.74 19.68 124.91 18.87 123.43 17.66 121.23 16.76 119.58 16.76 119.57 15.76 117.76 15.07 116.5 14.95 116.28 13.73 114.06 13.52 113.66 12.76 112.29 11.84 110.61 11.03 109.13 9.73 106.78 9.73 106.77 8.78 105.04 7.92 103.46 7.56 102.8 7.11 101.98 6 99.96 5.76 99.53 4.88 97.91 3.99 96.3 3.18 94.82 1.85 92.4 0.07 89.15"/><path class="cls-8" d="M25.23,93.69l.63,1.13h1l.81,1.48.89,1.62.05.1.91,1.65.6,1.08.67,1.23.81,1.48.95,1.72,1,1.81h0l1.17,2.13.81,1.48.54,1,.5.91,1,1.76h0l.08.15,1,1.85.81,1.48,1.11,2h0l.81,1.45,1.2,2.19.81,1.47.2.37.94,1.7.62,1.14.16.28,1.2,2.19.81,1.47,1.14,2.07.86,1.58,1.12,2L51.1,139l.15.26,1.21,2.22.19.35.58,1.05h0l1.13,2,.81,1.48,1.2,2.19,1.2-2.19.82-1.48.22-.41.91-1.66-.91-1.66-1.06-1.94-.82-1.48-.34-.63-.78-1.41-2-3.64-.81-1.47-.15-.27-.19-.35-.86-1.57-.5-.91-1.42-2.58-.81-1.47-.42-.78-.78-1.42-1.92-3.47-.61-1.12-.19-.36-.43-.77-.8-1.46h0l-.14-.25-1.76-3.19-.8-1.48-.33-.59-1-1.77-1.83-3.31-.27-.5-.53-1-.4-.72-.63-1.14-.37-.68L34,96.3l-.81-1.48-.49-.88-.9-1.66L30,89.15h-7.3Z"/><polygon class="cls-9" points="15.87 89.15 22.17 89.15 22.59 89.91 23.82 92.16 24.79 93.93 25.29 94.82 18.98 94.82 17.64 92.39 16.69 90.65 15.87 89.15"/><polygon class="cls-4" points="15.87 89.15 22.17 89.15 22.59 89.91 23.82 92.16 24.79 93.93 25.29 94.82 18.98 94.82 17.64 92.39 16.69 90.65 15.87 89.15"/><polygon class="cls-4" points="46.4 89.15 51.13 89.15 51.45 89.83 52.38 91.82 53.11 93.38 53.48 94.17 48.74 94.17 47.73 92.02 47.02 90.48 46.4 89.15"/><polygon class="cls-4" points="51.41 89.15 56.14 89.15 56.46 89.83 57.38 91.82 58.11 93.38 58.49 94.17 53.75 94.17 52.74 92.02 52.02 90.48 51.41 89.15"/><line class="cls-10" x1="24.81" y1="122.87" x2="24.82" y2="122.87"/><line class="cls-11" x1="29.03" y1="130.55" x2="29.04" y2="130.54"/><line class="cls-12" x1="28.07" y1="128.8" x2="28.08" y2="128.79"/><polyline class="cls-4" points="88.68 89.68 88.97 89.15 79.34 89.15 80.27 90.83 81.04 92.24 81.16 92.46 82.46 94.82 82.72 95.29 83.27 96.3 84.16 97.91 85.04 96.3 85.85 94.82 87.18 92.4"/></svg>