<svg width="30" height="30" viewBox="0 0 30 30" fill="none" xmlns="http://www.w3.org/2000/svg">
<path d="M11.6865 29.8012C11.348 29.8012 11.0157 29.735 10.6989 29.604L7.67433 28.351C6.35879 27.8054 5.73247 26.2916 6.27679 24.977C6.49611 24.4479 6.23695 24.0764 6.06275 23.9022C5.9228 23.7619 5.53818 23.46 4.9876 23.6885C4.35041 23.9523 3.64901 23.9526 3.01182 23.6882C2.37463 23.4244 1.87838 22.9281 1.61461 22.2913L0.362623 19.2674C-0.182363 17.9528 0.444289 16.4397 1.75917 15.8944C2.30943 15.6665 2.3687 15.1814 2.3687 14.9832C2.3687 14.785 2.30943 14.2992 1.76016 14.0717C1.12297 13.8079 0.626719 13.3117 0.362623 12.6742C0.0985268 12.037 0.0985268 11.3352 0.362623 10.6981L1.61494 7.67445C1.87838 7.03759 2.37463 6.54134 3.01248 6.27725C3.64966 6.01348 4.35173 6.01381 4.98859 6.27725C5.51875 6.49788 5.88921 6.23806 6.06308 6.06386C6.23728 5.88934 6.49677 5.51822 6.27712 4.98871C6.01303 4.35152 6.01303 3.64979 6.27712 3.0126C6.54089 2.37541 7.03747 1.87916 7.67499 1.61506L10.6979 0.362746C11.3355 0.098321 12.0375 0.0986503 12.6744 0.362746C13.3116 0.626513 13.8078 1.12309 14.0719 1.76061C14.2912 2.28979 14.7368 2.36882 14.9834 2.36882C15.1816 2.36882 15.667 2.30955 15.8946 1.76061C16.4405 0.445729 17.9537 -0.180923 19.2676 0.363076L22.2918 1.61605C22.929 1.87982 23.4249 2.37607 23.6887 3.01359C23.9528 3.65012 23.9531 4.35152 23.689 4.98904C23.4615 5.53896 23.7628 5.92391 23.9027 6.06386C24.043 6.2048 24.428 6.50512 24.9776 6.27791C26.2908 5.73358 27.8056 6.35891 28.3512 7.67413L29.6039 10.6987C29.8683 11.3359 29.868 12.038 29.6039 12.6748C29.3401 13.3117 28.8435 13.8079 28.2063 14.0717C27.6567 14.2996 27.5978 14.7843 27.5981 14.9825C27.5981 15.1804 27.6567 15.6616 28.1971 15.8904L28.2073 15.8947C29.5219 16.4397 30.1482 17.9525 29.6039 19.2674L28.3512 22.2913C27.8062 23.6049 26.2934 24.2308 24.9786 23.6888C24.4487 23.4688 24.0773 23.7283 23.9027 23.9022C23.7621 24.0425 23.4608 24.4274 23.6887 24.977C24.233 26.2916 23.607 27.805 22.2928 28.3507L19.2679 29.6033C17.9517 30.147 16.4396 29.5207 15.8949 28.2074C15.6753 27.6769 15.2297 27.5976 14.9834 27.5976C14.7371 27.5976 14.2916 27.6766 14.0719 28.2064C13.8078 28.8436 13.3116 29.3396 12.6744 29.6033C12.3582 29.7347 12.0257 29.8012 11.6865 29.8012ZM5.3765 22.2887C6.05024 22.2887 6.6242 22.6005 6.99499 22.9713C7.52088 23.4978 7.92789 24.4334 7.49388 25.4815C7.22715 26.1256 7.53438 26.8672 8.17881 27.1343L11.2021 28.3869C11.5143 28.5157 11.8587 28.516 12.1702 28.3866C12.4827 28.2572 12.7257 28.0145 12.8552 27.7023C13.2895 26.6538 14.2392 26.2807 14.9834 26.2807C15.7273 26.2807 16.6773 26.6545 17.1117 27.7029C17.3787 28.3461 18.1196 28.6526 18.7641 28.3862L21.788 27.1339C22.4314 26.8665 22.7383 26.1256 22.4716 25.4815C22.0373 24.4324 22.4449 23.4965 22.9718 22.971C23.498 22.4451 24.4326 22.0374 25.4824 22.4717C26.1268 22.7385 26.8681 22.4306 27.1345 21.7868L28.3871 18.7632C28.6522 18.1237 28.3509 17.3877 27.715 17.1167L27.7022 17.1111C26.654 16.6771 26.2809 15.7274 26.2809 14.9832C26.2799 14.2396 26.653 13.2896 27.7022 12.855C28.0143 12.7255 28.2574 12.4825 28.3868 12.1707C28.5162 11.8585 28.5162 11.5147 28.3868 11.2029L27.1341 8.17861C26.8667 7.53483 26.1258 7.2276 25.4817 7.49499C24.4332 7.93032 23.4967 7.52199 22.9712 6.99512C22.4449 6.46956 22.0376 5.53403 22.4719 4.48489C22.6014 4.17304 22.601 3.82925 22.4716 3.51774C22.3422 3.20524 22.0995 2.96222 21.7877 2.83313L18.7634 1.58016C18.1206 1.31409 17.3787 1.62099 17.1113 2.26542C16.6766 3.31292 15.7273 3.68601 14.9834 3.68601C14.2392 3.68601 13.2892 3.31259 12.8552 2.26444C12.7257 1.95193 12.4827 1.70891 12.1706 1.5795C11.8584 1.45008 11.5143 1.45008 11.2021 1.5795L8.17914 2.83214C7.86664 2.96156 7.62362 3.20458 7.49421 3.51675C7.36479 3.82893 7.36479 4.17271 7.49421 4.48456C7.92855 5.53238 7.52121 6.46824 6.99532 6.99479C6.46943 7.52133 5.5339 7.929 4.48509 7.49466C4.17292 7.36557 3.82913 7.36557 3.51663 7.49466C3.20478 7.62407 2.96143 7.86676 2.83268 8.17861L1.58003 11.2022C1.45062 11.5144 1.45062 11.8585 1.58003 12.1707C1.70945 12.4828 1.95247 12.7259 2.26464 12.8553C3.31279 13.2893 3.68622 14.2393 3.68622 14.9835C3.68622 15.7277 3.31246 16.6771 2.26365 17.1118C1.61988 17.3788 1.31297 18.1198 1.5797 18.7635L2.83202 21.7875C2.96143 22.0993 3.20446 22.3427 3.51663 22.4717C3.82913 22.6012 4.17259 22.6012 4.48476 22.4717C4.79397 22.3436 5.09429 22.2887 5.3765 22.2887Z" fill="#B7C7CF"/>
<path d="M14.9832 24.4913C9.74048 24.4913 5.4751 20.226 5.4751 14.9832C5.4751 9.74048 9.74048 5.4751 14.9832 5.4751C20.226 5.4751 24.4913 9.74048 24.4913 14.9832C24.4913 20.226 20.226 24.4913 14.9832 24.4913ZM14.9832 6.79229C10.4666 6.79229 6.79229 10.4666 6.79229 14.9832C6.79229 19.4995 10.4666 23.1741 14.9832 23.1741C19.4995 23.1741 23.1741 19.4995 23.1741 14.9832C23.1741 10.4666 19.4995 6.79229 14.9832 6.79229Z" fill="#B7C7CF"/>
<path d="M10.2623 23.1258C10.1408 23.1258 10.019 23.0922 9.91064 23.0237C8.71496 22.268 7.6846 21.2357 6.93116 20.0383C6.7675 19.7779 6.8057 19.4393 7.02304 19.222L10.3766 15.8681C10.016 14.2444 10.5011 12.5488 11.6892 11.3607C13.0176 10.0323 15.0213 9.58612 16.7943 10.2236C17.0067 10.2997 17.1647 10.4795 17.2141 10.6995C17.2632 10.9194 17.1963 11.1496 17.037 11.309L14.3259 14.0201L14.5063 15.4466L15.9328 15.6271L18.6439 12.916C18.803 12.7563 19.0345 12.6891 19.2535 12.7388C19.4738 12.7879 19.6532 12.9463 19.7293 13.1587C20.3665 14.9316 19.9203 16.9354 18.5922 18.2638C17.4045 19.4515 15.7089 19.9363 14.0845 19.5763L10.7283 22.9329C10.6012 23.06 10.4326 23.1258 10.2623 23.1258ZM8.33825 19.7696C8.84965 20.4766 9.47564 21.1043 10.1817 21.617L13.4213 18.3774C13.5942 18.2045 13.8484 18.1416 14.0818 18.214C15.3519 18.6079 16.7238 18.27 17.661 17.3325C18.3571 16.636 18.7213 15.6847 18.6983 14.7241L16.6359 16.7865C16.492 16.9304 16.2908 17.0002 16.0876 16.9742L13.8339 16.6894C13.5355 16.6518 13.3008 16.4167 13.2632 16.1187L12.9784 13.865C12.953 13.6631 13.0222 13.4606 13.1661 13.3167L15.2285 11.2543C14.2712 11.2273 13.3166 11.5958 12.6201 12.2916C11.6826 13.2291 11.3451 14.6007 11.7386 15.8708C11.811 16.1046 11.7481 16.3588 11.5752 16.5316L8.33825 19.7696Z" fill="#B7C7CF"/>
</svg>
