<svg width="30" height="30" viewBox="0 0 30 30" fill="none" xmlns="http://www.w3.org/2000/svg">
<g clip-path="url(#clip0_47_494)">
<path d="M7.38281 19.5703C5.85938 19.5703 4.62891 20.8008 4.62891 22.3242C4.62891 23.8477 5.85938 25.0781 7.38281 25.0781C8.90625 25.0781 10.1367 23.8477 10.1367 22.3242C10.1367 20.8008 8.90625 19.5703 7.38281 19.5703ZM7.38281 23.3672C6.80859 23.3672 6.32812 22.8867 6.32812 22.3125C6.32812 21.7383 6.80859 21.2578 7.38281 21.2578C7.95703 21.2578 8.4375 21.7383 8.4375 22.3125C8.4375 22.8984 7.96875 23.3672 7.38281 23.3672ZM24.7031 19.4531C23.1797 19.4531 21.9492 20.6836 21.9492 22.207C21.9492 23.7305 23.1797 24.9609 24.7031 24.9609C26.2266 24.9609 27.457 23.7305 27.457 22.207C27.457 20.6836 26.2266 19.4531 24.7031 19.4531ZM24.7031 23.25C24.1289 23.25 23.6484 22.7695 23.6484 22.1953C23.6484 21.6211 24.1289 21.1406 24.7031 21.1406C25.2773 21.1406 25.7578 21.6211 25.7578 22.1953C25.7578 22.7812 25.2891 23.25 24.7031 23.25ZM-0.0585938 20.7539C-0.0585938 21.293 0.375 21.7148 0.902344 21.7148H3.55078C3.65625 21.7148 3.75 21.6328 3.77344 21.5391C4.07812 19.8164 5.57812 18.6211 7.38281 18.6211C9.1875 18.6211 10.6992 19.8164 10.9922 21.5391C11.0156 21.6445 11.0977 21.7148 11.2148 21.7148H11.6016H15.2227V17.4609H-0.0585938V20.7539ZM29.7188 19.7461H29.1328V17.168C29.1328 16.2891 28.418 15.5742 27.5273 15.5742H24.6797C24.6211 15.5742 24.5625 15.5391 24.5156 15.5039L20.0625 11.168C19.8633 10.9687 19.582 10.8516 19.2891 10.8398H16.0664V21.7148H20.8594C20.9648 21.7148 21.0586 21.6328 21.082 21.5391C21.3867 19.8164 22.8867 18.5039 24.6914 18.5039C26.4961 18.5039 28.0078 19.8164 28.3008 21.5391C28.3242 21.6445 28.4062 21.7148 28.5234 21.7148H28.8984C29.4727 21.7148 29.918 21.2578 29.918 20.6953V19.957C29.9414 19.8516 29.8359 19.7461 29.7188 19.7461ZM22.3945 15.5859H17.543C17.4258 15.5859 17.3203 15.4805 17.3203 15.3633V12.2695C17.3203 12.1523 17.4258 12.0469 17.543 12.0469H19.1719C19.2305 12.0469 19.2891 12.082 19.3477 12.1172L22.5703 15.1992C22.6758 15.3516 22.582 15.5859 22.3945 15.5859Z" fill="#496071"/>
<path d="M6.77344 15.8789H2.00391V11.1094H3.84375V12.6328H4.93359V11.1094H6.77344V15.8789ZM12.9961 15.8789H8.23828V11.1094H10.0781V12.6328H11.168V11.1094H13.0078V15.8789H12.9961ZM9.92578 9.64453H5.15625V4.875H6.99609V6.39844H8.08594V4.875H9.92578V9.64453Z" fill="#496071"/>
</g>
<defs>
<clipPath id="clip0_47_494">
<rect width="30" height="30" fill="white"/>
</clipPath>
</defs>
</svg>
